<svg width="1024" height="1024" xmlns="http://www.w3.org/2000/svg">
    <path
        d="M796,816 L795,817 L793,817 L792,818 L791,818 L789,820 L789,821 L788,822 L788,824 L787,825 L787,826 L788,827 L788,831 L790,833 L790,834 L791,834 L793,836 L796,836 L797,837 L832,837 L833,836 L834,836 L835,835 L836,835 L838,833 L838,832 L839,831 L839,829 L840,828 L840,826 L839,825 L839,822 L838,821 L838,820 L835,817 L833,817 L832,816"
        fill="black" />
    <path
        d="M180,816 L179,817 L177,817 L173,821 L173,823 L172,824 L172,829 L173,830 L173,831 L174,832 L174,833 L175,834 L176,834 L178,836 L180,836 L181,837 L214,837 L215,836 L217,836 L218,835 L219,835 L221,833 L221,832 L222,831 L222,830 L223,829 L223,824 L222,823 L222,821 L218,817 L217,817 L216,816"
        fill="black" />
    <path
        d="M735,803 L734,804 L732,804 L731,805 L730,805 L728,807 L727,807 L727,808 L724,811 L724,812 L723,813 L723,816 L722,817 L722,820 L723,821 L723,823 L724,824 L724,825 L725,826 L725,827 L727,829 L728,829 L729,830 L730,830 L731,831 L732,831 L733,832 L735,832 L736,833 L739,833 L740,834 L742,834 L743,835 L745,835 L747,837 L747,840 L744,843 L743,843 L742,844 L736,844 L734,842 L733,842 L732,841 L731,841 L730,840 L725,840 L722,843 L722,847 L723,848 L723,849 L725,851 L726,851 L728,853 L730,853 L731,854 L733,854 L734,855 L744,855 L745,854 L748,854 L749,853 L750,853 L751,852 L752,852 L757,847 L757,846 L758,845 L758,844 L759,843 L759,835 L758,834 L758,833 L757,832 L757,831 L756,830 L756,829 L755,829 L752,826 L751,826 L750,825 L748,825 L747,824 L745,824 L744,823 L742,823 L741,822 L739,822 L738,821 L737,821 L734,818 L734,817 L737,814 L738,814 L739,813 L740,814 L744,814 L745,815 L746,815 L748,817 L752,817 L753,816 L754,816 L755,815 L756,815 L756,814 L757,813 L757,811 L756,810 L756,809 L753,806 L752,806 L751,805 L749,805 L748,804 L747,804 L746,803"
        fill="black" />
    <path
        d="M695,803 L694,804 L693,804 L693,805 L692,806 L692,852 L694,854 L695,854 L696,855 L700,855 L01,854 L702,854 L703,853 L703,852 L704,851 L704,806 L701,803"
        fill="black" />
    <path
        d="M645,803 L642,806 L642,837 L641,838 L641,849 L642,850 L642,852 L645,855 L671,855 L675,851 L675,847 L674,846 L674,845 L673,845 L671,843 L655,843 L654,842 L654,808 L653,807 L653,805 L652,804 L651,804 L650,803"
        fill="black" />
    <path
        d="M596,803 L595,804 L590,804 L588,806 L586,806 L584,808 L583,808 L579,812 L579,813 L577,815 L577,816 L576,817 L576,818 L575,819 L575,821 L574,822 L574,836 L575,837 L575,839 L576,840 L576,841 L577,842 L577,843 L579,845 L579,846 L583,850 L584,850 L586,852 L588,852 L589,853 L590,853 L591,854 L593,854 L594,855 L603,855 L604,854 L607,854 L608,853 L609,853 L610,852 L611,852 L613,850 L614,850 L618,846 L618,845 L620,843 L620,842 L621,841 L621,840 L622,839 L622,837 L623,836 L623,832 L624,831 L624,826 L623,825 L623,821 L622,820 L622,819 L621,818 L621,817 L620,816 L620,815 L618,813 L618,812 L613,807 L612,807 L611,806 L610,806 L609,805 L607,805 L606,804 L604,804 L603,803"
        fill="black" />
    <path
        d="M534,803 L533,804 L531,804 L529,806 L528,806 L524,810 L524,811 L523,812 L523,813 L522,814 L522,823 L523,824 L523,825 L524,826 L524,827 L525,828 L526,828 L528,830 L529,830 L530,831 L531,831 L532,832 L534,832 L535,833 L539,833 L540,834 L543,834 L547,838 L547,839 L543,843 L541,843 L540,844 L537,844 L536,843 L534,843 L533,842 L531,842 L529,840 L528,840 L527,839 L526,840 L524,840 L521,843 L521,846 L522,847 L522,848 L525,851 L526,851 L528,853 L530,853 L531,854 L532,854 L533,855 L544,855 L545,854 L546,854 L547,853 L549,853 L550,852 L551,852 L556,847 L556,846 L557,845 L557,844 L558,843 L558,834 L557,833 L557,832 L555,830 L555,829 L554,828 L553,828 L550,825 L548,825 L547,824 L545,824 L544,823 L542,823 L541,822 L538,822 L537,821 L536,821 L533,818 L534,817 L534,816 L535,815 L536,815 L538,813 L541,813 L542,814 L543,814 L544,815 L545,815 L547,817 L550,817 L551,816 L552,816 L554,814 L555,814 L555,810 L554,809 L554,808 L553,807 L552,807 L550,805 L549,805 L548,804 L546,804 L545,803"
        fill="black" />
    <path
        d="M447,803 L446,804 L445,804 L444,805 L444,806 L443,807 L443,851 L444,852 L444,853 L446,855 L475,855 L476,854 L477,854 L478,853 L479,853 L480,852 L480,851 L481,850 L481,847 L478,844 L477,844 L476,843 L457,843 L456,842 L456,835 L457,834 L472,834 L473,833 L474,833 L476,831 L476,830 L477,829 L477,827 L476,826 L476,825 L475,824 L474,824 L473,823 L472,823 L471,822 L457,822 L456,821 L456,816 L457,815 L475,815 L476,814 L478,814 L480,812 L480,807 L479,806 L479,805 L478,804 L476,804 L475,803"
        fill="black" />
    <path
        d="M387,803 L386,804 L385,804 L384,805 L383,805 L383,806 L382,807 L382,811 L383,812 L383,813 L384,813 L386,815 L397,815 L398,816 L398,851 L399,852 L399,853 L400,854 L401,854 L402,855 L406,855 L407,854 L408,854 L409,853 L409,852 L410,851 L410,818 L411,817 L411,816 L412,815 L423,815 L426,812 L426,807 L422,803"
        fill="black" />
    <path
        d="M324,803 L322,805 L322,806 L321,807 L321,851 L322,852 L322,853 L323,854 L324,854 L325,855 L330,855 L333,852 L333,829 L334,828 L335,828 L336,829 L336,830 L339,833 L339,834 L343,838 L343,839 L347,843 L347,844 L350,847 L350,848 L356,854 L357,854 L358,855 L363,855 L367,851 L367,810 L366,809 L366,806 L363,803 L358,803 L357,804 L356,804 L355,805 L355,806 L354,807 L354,830 L353,831 L349,827 L349,826 L346,823 L346,822 L342,818 L342,817 L339,814 L339,813 L337,811 L337,810 L330,803"
        fill="black" />
    <path
        d="M276,803 L275,804 L274,804 L274,805 L272,807 L272,809 L271,810 L271,811 L270,812 L270,814 L269,815 L269,816 L268,817 L268,818 L267,819 L267,820 L266,821 L266,822 L265,823 L265,824 L264,825 L264,826 L263,827 L263,828 L262,829 L262,831 L261,832 L261,833 L260,834 L260,835 L259,836 L259,837 L258,838 L258,839 L257,840 L257,841 L256,842 L256,843 L255,844 L255,846 L254,847 L254,849 L253,850 L253,851 L254,852 L254,853 L256,855 L262,855 L266,851 L266,850 L267,849 L267,846 L269,844 L287,844 L290,847 L290,849 L291,850 L291,851 L295,855 L300,855 L301,854 L302,854 L303,853 L303,852 L304,851 L304,848 L303,847 L303,846 L302,845 L302,844 L301,843 L301,842 L300,841 L300,840 L299,839 L299,837 L298,836 L298,835 L297,834 L297,833 L296,832 L296,831 L295,830 L295,829 L294,828 L294,827 L293,826 L293,824 L292,823 L292,822 L291,821 L291,820 L290,819 L290,818 L289,817 L289,816 L288,815 L288,814 L287,813 L287,811 L286,810 L286,809 L285,808 L285,807 L284,806 L284,805 L283,804 L282,804 L281,803"
        fill="black" />
    <path
        d="M632,657 L631,658 L630,658 L629,659 L628,659 L626,661 L626,662 L625,663 L625,664 L624,665 L624,770 L625,771 L625,773 L630,778 L631,778 L632,779 L689,779 L690,778 L691,778 L692,777 L694,777 L697,774 L697,773 L698,772 L698,771 L699,770 L699,761 L697,759 L697,758 L694,755 L693,755 L692,754 L691,754 L690,753 L653,753 L652,752 L652,731 L653,730 L681,730 L682,729 L685,729 L686,728 L687,728 L691,724 L691,722 L692,721 L692,719 L693,718 L692,717 L692,712 L691,711 L691,710 L687,706 L686,706 L685,705 L683,705 L682,704 L653,704 L652,703 L652,683 L653,682 L691,682 L692,681 L693,681 L694,680 L695,680 L697,678 L697,677 L698,676 L698,675 L699,674 L699,666 L698,665 L698,664 L697,663 L697,662 L694,659 L693,659 L691,657"
        fill="black" />
    <path
        d="M741,656 L740,657 L736,657 L735,658 L734,658 L730,662 L730,663 L729,664 L729,665 L728,666 L728,770 L729,771 L729,772 L730,773 L730,774 L734,778 L735,778 L736,779 L739,779 L740,780 L743,780 L744,779 L748,779 L749,778 L750,778 L754,774 L754,773 L755,772 L755,770 L756,769 L756,717 L757,716 L767,726 L767,727 L774,734 L774,735 L783,744 L784,744 L785,745 L788,745 L789,744 L790,744 L791,743 L792,743 L800,735 L800,734 L807,727 L807,726 L814,719 L814,718 L816,716 L817,716 L818,717 L818,771 L819,772 L819,773 L821,775 L821,776 L822,777 L823,777 L825,779 L837,779 L838,778 L840,778 L844,774 L844,773 L845,772 L845,771 L846,770 L846,666 L845,665 L845,664 L844,663 L844,662 L840,658 L839,658 L838,657 L835,657 L834,656 L833,657 L831,657 L830,656 L829,657 L827,657 L825,659 L824,659 L817,666 L817,667 L813,671 L813,672 L808,677 L808,678 L803,683 L803,684 L799,688 L799,689 L795,693 L795,694 L791,698 L791,699 L788,702 L787,702 L781,696 L781,695 L776,690 L776,689 L772,685 L772,684 L766,678 L766,677 L761,672 L761,671 L755,665 L755,664 L749,658 L748,658 L747,657 L745,657 L744,656 L743,657 L742,656"
        fill="black" />
    <path
        d="M531,656 L530,657 L490,657 L489,658 L488,658 L485,661 L485,664 L484,665 L484,772 L485,773 L485,774 L487,776 L487,777 L488,777 L490,779 L543,779 L544,778 L548,778 L549,777 L550,777 L551,776 L553,776 L555,774 L556,774 L557,773 L558,773 L566,765 L566,764 L568,762 L568,761 L569,760 L569,759 L570,758 L570,757 L571,756 L571,754 L572,753 L572,750 L573,749 L573,737 L572,736 L572,733 L571,732 L571,730 L570,729 L570,728 L568,726 L568,725 L562,719 L561,719 L559,717 L558,717 L557,716 L557,714 L558,713 L559,713 L562,710 L562,709 L564,707 L564,706 L565,705 L565,704 L566,703 L566,702 L567,701 L567,699 L568,698 L568,687 L567,686 L567,682 L566,681 L566,680 L565,679 L565,677 L564,676 L564,675 L562,673 L562,672 L559,669 L559,668 L556,665 L555,665 L552,662 L551,662 L550,661 L549,661 L548,660 L547,660 L546,659 L544,659 L543,658 L540,658 L539,657 L534,657 L533,656"
        fill="black" />
    <path
        d="M334,656 L333,657 L330,657 L329,658 L328,658 L327,659 L326,659 L324,661 L324,662 L323,663 L323,664 L322,665 L322,668 L321,669 L321,736 L322,737 L322,742 L323,743 L323,745 L324,746 L324,748 L325,749 L325,750 L326,751 L326,752 L327,753 L327,755 L329,757 L329,758 L330,759 L330,760 L341,771 L342,771 L344,773 L345,773 L347,775 L348,775 L349,776 L350,776 L351,777 L353,777 L354,778 L356,778 L357,779 L360,779 L361,780 L372,780 L373,781 L374,780 L381,780 L382,779 L385,779 L386,778 L389,778 L390,777 L391,777 L392,776 L394,776 L395,775 L396,775 L398,773 L399,773 L401,771 L402,771 L404,769 L405,769 L405,768 L406,767 L407,767 L409,765 L409,764 L413,760 L413,759 L415,757 L415,756 L417,754 L417,753 L418,752 L418,750 L419,749 L419,748 L420,747 L420,745 L421,744 L421,741 L422,740 L422,665 L421,664 L421,663 L419,661 L419,660 L418,660 L416,658 L415,658 L414,657 L412,657 L411,656 L410,657 L404,657 L403,658 L401,658 L398,661 L398,662 L397,663 L397,664 L396,665 L396,731 L395,732 L395,736 L394,737 L394,739 L392,741 L392,742 L384,750 L383,750 L382,751 L380,751 L379,752 L377,752 L376,753 L367,753 L366,752 L364,752 L363,751 L362,751 L361,750 L360,750 L352,742 L352,741 L351,740 L351,739 L350,738 L350,736 L349,735 L349,730 L348,729 L349,728 L349,671 L348,670 L349,669 L348,668 L348,664 L346,662 L346,661 L345,660 L344,660 L342,658 L341,658 L340,657 L338,657 L337,656 L336,657 L335,656"
        fill="black" />
    <path
        d="M182,656 L181,657 L176,657 L175,658 L174,658 L170,662 L170,663 L169,664 L169,666 L168,667 L168,769 L169,770 L169,772 L170,773 L170,774 L174,778 L175,778 L176,779 L179,779 L180,780 L184,780 L185,779 L187,779 L188,778 L190,778 L194,774 L194,773 L195,772 L195,771 L196,770 L196,717 L197,716 L198,716 L199,717 L199,718 L202,721 L202,722 L206,726 L206,727 L211,732 L211,733 L214,736 L214,737 L219,742 L219,743 L225,749 L225,750 L229,754 L229,755 L234,760 L234,761 L238,765 L238,766 L244,772 L244,773 L249,778 L250,778 L251,779 L254,779 L255,780 L256,779 L260,779 L261,778 L262,778 L267,773 L267,771 L268,770 L268,666 L267,665 L267,664 L266,663 L266,662 L262,658 L261,658 L260,657 L258,657 L257,656 L256,656 L255,657 L254,657 L253,656 L252,656 L251,657 L248,657 L245,660 L244,660 L243,661 L243,662 L241,664 L241,667 L240,668 L240,715 L239,716 L238,716 L232,710 L232,709 L228,705 L228,704 L223,699 L223,698 L217,692 L217,691 L213,687 L213,686 L208,681 L208,680 L203,675 L203,674 L199,670 L199,669 L193,663 L193,662 L189,658 L187,658 L186,657 L183,657"
        fill="black" />
    <path
        d="M771,554 L770,555 L769,555 L768,556 L766,556 L762,560 L762,561 L761,562 L761,563 L760,564 L760,572 L761,573 L761,574 L762,575 L762,576 L766,580 L768,580 L770,582 L776,582 L777,581 L779,581 L780,580 L781,580 L782,579 L783,579 L785,577 L785,576 L786,575 L786,574 L787,573 L787,571 L788,570 L788,565 L787,564 L787,562 L784,559 L784,558 L783,558 L781,556 L780,556 L779,555 L777,555 L776,554"
        fill="black" />
    <path
        d="M236,554 L235,555 L232,555 L231,556 L229,556 L225,560 L225,561 L224,562 L224,563 L223,564 L223,573 L224,574 L224,575 L229,580 L231,580 L232,581 L234,581 L235,582 L239,582 L240,581 L242,581 L243,580 L244,580 L245,579 L246,579 L248,577 L248,576 L249,575 L249,574 L250,573 L250,571 L251,570 L251,567 L250,566 L250,563 L249,562 L249,561 L244,556 L243,556 L242,555 L239,555 L238,554"
        fill="black" />
    <path
        d="M736,492 L735,493 L732,493 L731,494 L730,494 L728,496 L728,497 L727,498 L727,499 L726,500 L726,508 L727,509 L727,510 L730,513 L731,513 L732,514 L733,514 L734,515 L807,515 L808,514 L809,514 L810,513 L811,513 L814,510 L814,509 L815,508 L815,500 L814,499 L814,498 L813,497 L813,496 L812,495 L811,495 L810,494 L809,494 L807,492"
        fill="black" />
    <path
        d="M205,492 L204,493 L202,493 L197,498 L197,500 L196,501 L196,506 L197,507 L197,509 L202,514 L204,514 L205,515 L275,515 L276,514 L278,514 L282,510 L282,509 L283,508 L283,506 L284,505 L283,504 L284,503 L283,502 L284,501 L283,500 L283,499 L282,498 L282,497 L279,494 L278,494 L277,493 L275,493 L274,492"
        fill="black" />
    <path d="M649,473" fill="black" />
    <path
        d="M706,435 L705,436 L703,436 L701,438 L700,438 L700,439 L698,441 L698,450 L699,451 L699,452 L703,456 L704,456 L705,457 L768,457 L769,456 L771,456 L775,452 L775,451 L776,450 L776,442 L774,440 L774,439 L773,438 L772,438 L770,436 L769,436 L768,435"
        fill="black" />
    <path
        d="M245,435 L244,436 L242,436 L238,440 L238,441 L237,442 L237,450 L238,451 L238,452 L240,454 L240,455 L241,455 L242,456 L243,456 L244,457 L306,457 L308,455 L309,455 L312,452 L312,451 L313,450 L313,448 L314,447 L313,446 L313,443 L312,442 L312,440 L309,437 L308,437 L307,436 L306,436 L305,435"
        fill="black" />
    <path
        d="M822,429 L821,430 L816,430 L815,431 L814,431 L811,434 L811,435 L810,436 L810,437 L809,438 L809,440 L808,441 L808,444 L809,445 L809,448 L814,453 L816,453 L817,454 L819,454 L820,455 L821,455 L822,454 L825,454 L826,453 L827,453 L828,452 L829,452 L832,449 L832,448 L833,447 L833,445 L834,444 L834,440 L833,439 L833,437 L832,436 L832,435 L829,432 L828,432 L827,431 L826,431 L825,430 L823,430"
        fill="black" />
    <path
        d="M190,429 L189,430 L187,430 L186,431 L185,431 L181,435 L181,436 L180,437 L180,438 L179,439 L179,446 L180,447 L180,448 L181,449 L181,450 L183,452 L184,452 L185,453 L186,453 L187,454 L195,454 L196,453 L197,453 L199,451 L200,451 L201,450 L201,449 L203,447 L203,445 L204,444 L204,440 L203,439 L203,438 L202,437 L202,435 L198,431 L196,431 L195,430 L191,430"
        fill="black" />
    <path
        d="M486,398 L485,399 L475,399 L474,400 L471,400 L470,401 L466,401 L465,402 L463,402 L462,403 L460,403 L459,404 L456,404 L455,405 L453,405 L452,406 L450,406 L449,407 L448,407 L447,408 L445,408 L444,409 L443,409 L442,410 L441,410 L440,411 L439,411 L438,412 L437,412 L436,413 L435,413 L434,414 L433,414 L432,415 L431,415 L430,416 L429,416 L428,417 L427,417 L426,418 L425,418 L423,420 L422,420 L420,422 L419,422 L415,426 L414,426 L409,431 L408,431 L402,437 L402,438 L395,445 L395,446 L392,449 L392,450 L389,453 L389,454 L387,456 L387,457 L385,459 L385,460 L383,462 L383,463 L382,464 L382,465 L381,466 L381,467 L380,468 L380,469 L379,470 L379,471 L378,472 L378,474 L377,475 L377,477 L376,478 L376,479 L375,480 L375,481 L374,482 L374,484 L373,485 L373,487 L372,488 L372,490 L371,491 L371,493 L370,494 L369,494 L368,495 L361,495 L360,496 L356,496 L355,497 L352,497 L351,498 L349,498 L348,499 L346,499 L345,500 L344,500 L343,501 L341,501 L340,502 L339,502 L338,503 L337,503 L336,504 L334,504 L332,506 L331,506 L330,507 L329,507 L328,508 L327,508 L325,510 L324,510 L323,511 L322,511 L320,513 L319,513 L316,516 L315,516 L305,526 L304,526 L304,527 L298,533 L298,534 L296,536 L296,537 L294,539 L294,540 L292,542 L292,543 L291,544 L291,545 L289,547 L289,548 L288,549 L288,550 L287,551 L287,552 L286,553 L286,554 L285,555 L285,556 L284,557 L284,558 L283,559 L283,561 L282,562 L282,563 L281,564 L281,566 L280,567 L280,569 L279,570 L279,572 L278,573 L278,575 L277,576 L277,580 L276,581 L276,584 L275,585 L275,592 L274,593 L274,602 L270,606 L182,606 L181,607 L177,607 L176,608 L175,608 L171,612 L171,613 L170,614 L170,618 L169,619 L170,620 L170,623 L172,625 L172,626 L174,628 L175,628 L176,629 L177,629 L178,630 L833,630 L834,629 L835,629 L836,628 L837,628 L839,626 L839,625 L840,624 L840,623 L841,622 L841,621 L842,620 L842,617 L841,616 L841,614 L840,613 L840,612 L835,607 L833,607 L832,606 L737,606 L735,604 L735,602 L734,601 L734,585 L733,584 L733,580 L732,579 L732,575 L731,574 L731,572 L730,571 L730,568 L729,567 L729,565 L728,564 L728,563 L727,562 L727,560 L726,559 L726,558 L725,557 L725,556 L724,555 L724,553 L722,551 L722,550 L721,549 L721,548 L720,547 L720,546 L719,545 L719,544 L717,542 L717,541 L715,539 L715,538 L712,535 L712,534 L707,529 L707,528 L706,527 L705,527 L696,518 L695,518 L692,515 L691,515 L688,512 L687,512 L685,510 L684,510 L683,509 L682,509 L680,507 L679,507 L678,506 L677,506 L676,505 L675,505 L674,504 L673,504 L672,503 L671,503 L670,502 L668,502 L667,501 L666,501 L665,500 L663,500 L662,499 L660,499 L659,498 L656,498 L655,497 L652,497 L651,496 L646,496 L645,495 L641,495 L640,494 L639,495 L638,494 L618,494 L617,493 L617,492 L616,491 L616,489 L615,488 L615,486 L614,485 L614,483 L613,482 L613,481 L612,480 L612,479 L611,478 L611,476 L610,475 L610,472 L609,471 L609,470 L608,469 L608,468 L607,467 L607,466 L606,465 L606,464 L604,462 L604,461 L603,460 L603,459 L601,457 L601,456 L599,454 L599,453 L596,450 L596,449 L594,447 L594,446 L589,441 L589,440 L576,427 L575,427 L571,423 L570,423 L568,421 L567,421 L566,420 L565,420 L563,418 L562,418 L560,416 L559,416 L558,415 L557,415 L556,414 L555,414 L553,412 L552,412 L551,411 L549,411 L548,410 L547,410 L546,409 L545,409 L544,408 L543,408 L542,407 L540,407 L539,406 L538,406 L537,405 L536,405 L535,404 L532,404 L531,403 L529,403 L528,402 L526,402 L525,401 L522,401 L521,400 L517,400 L516,399 L508,399 L507,398"
        fill="black" />
    <path
        d="M696,389 L695,390 L694,390 L693,391 L692,391 L691,392 L691,393 L690,394 L690,395 L689,396 L689,400 L690,401 L690,402 L691,403 L691,404 L693,406 L695,406 L696,407 L700,407 L701,406 L702,406 L704,404 L705,404 L705,403 L706,402 L706,401 L707,400 L707,395 L705,393 L705,392 L704,391 L703,391 L702,390 L701,390 L700,389"
        fill="black" />
    <path
        d="M309,389 L305,393 L305,394 L304,395 L304,402 L309,407 L315,407 L316,406 L318,406 L320,404 L320,403 L321,402 L321,401 L322,400 L322,397 L321,396 L321,394 L320,393 L320,392 L319,391 L318,391 L317,390 L316,390 L315,389"
        fill="black" />
    <path
        d="M794,351 L793,352 L791,352 L790,353 L789,353 L788,354 L787,354 L786,355 L785,355 L784,356 L783,356 L782,357 L781,357 L780,358 L778,358 L777,359 L776,359 L775,360 L774,360 L773,361 L771,361 L770,362 L769,362 L768,363 L766,363 L765,364 L764,364 L763,365 L762,365 L761,366 L760,366 L759,367 L757,367 L756,368 L755,368 L754,369 L753,369 L752,370 L750,370 L749,371 L748,371 L747,372 L746,372 L745,373 L744,373 L743,374 L741,374 L739,376 L737,376 L732,381 L732,383 L731,384 L731,390 L732,391 L732,392 L733,393 L733,394 L735,396 L736,396 L737,397 L740,397 L741,398 L742,398 L743,397 L747,397 L748,396 L750,396 L751,395 L753,395 L754,394 L755,394 L756,393 L757,393 L758,392 L760,392 L761,391 L762,391 L763,390 L764,390 L765,389 L767,389 L768,388 L769,388 L770,387 L771,387 L772,386 L773,386 L774,385 L776,385 L777,384 L778,384 L779,383 L780,383 L781,382 L783,382 L784,381 L785,381 L786,380 L787,380 L788,379 L789,379 L790,378 L791,378 L792,377 L794,377 L795,376 L796,376 L797,375 L799,375 L801,373 L802,373 L803,372 L804,372 L808,368 L808,367 L809,366 L809,359 L808,358 L808,357 L805,354 L805,353 L804,353 L803,352 L801,352 L800,351"
        fill="black" />
    <path
        d="M213,351 L212,352 L210,352 L205,357 L205,359 L204,360 L204,365 L205,366 L205,368 L209,372 L210,372 L211,373 L212,373 L213,374 L215,374 L216,375 L217,375 L218,376 L219,376 L220,377 L221,377 L222,378 L223,378 L224,379 L226,379 L227,380 L228,380 L229,381 L230,381 L231,382 L232,382 L233,383 L235,383 L236,384 L237,384 L238,385 L239,385 L240,386 L241,386 L242,387 L243,387 L244,388 L245,388 L246,389 L248,389 L249,390 L250,390 L251,391 L252,391 L253,392 L254,392 L255,393 L256,393 L257,394 L259,394 L261,396 L263,396 L264,397 L267,397 L268,398 L269,397 L273,397 L274,396 L275,396 L278,393 L278,392 L279,391 L279,389 L280,388 L280,385 L279,384 L279,381 L278,380 L278,379 L275,376 L274,376 L272,374 L270,374 L269,373 L268,373 L267,372 L266,372 L265,371 L264,371 L263,370 L261,370 L260,369 L259,369 L258,368 L257,368 L256,367 L255,367 L254,366 L253,366 L252,365 L251,365 L250,364 L248,364 L247,363 L246,363 L245,362 L244,362 L243,361 L242,361 L241,360 L239,360 L238,359 L237,359 L236,358 L235,358 L234,357 L233,357 L232,356 L230,356 L229,355 L228,355 L227,354 L226,354 L225,353 L223,353 L222,352 L219,352 L218,351"
        fill="black" />
    <path
        d="M674,345 L670,349 L670,350 L669,351 L669,358 L670,359 L670,360 L673,363 L675,363 L676,364 L679,364 L680,363 L682,363 L683,362 L684,362 L687,359 L687,357 L688,356 L688,352 L687,351 L687,350 L686,349 L686,348 L684,346 L683,346 L682,345"
        fill="black" />
    <path
        d="M331,345 L330,346 L329,346 L327,348 L327,349 L326,350 L326,351 L325,352 L325,357 L326,358 L326,359 L330,363 L333,363 L334,364 L335,364 L336,363 L338,363 L339,362 L340,362 L342,360 L342,359 L343,358 L343,356 L344,355 L344,353 L343,352 L343,350 L341,348 L341,347 L340,347 L338,345"
        fill="black" />
    <path
        d="M720,313 L719,314 L718,314 L717,315 L716,315 L713,318 L713,319 L712,320 L712,321 L711,322 L711,325 L710,326 L711,327 L711,331 L712,332 L712,334 L717,339 L718,339 L719,340 L724,340 L725,341 L726,340 L729,340 L730,339 L731,339 L733,337 L734,337 L735,336 L735,335 L737,333 L737,332 L738,331 L738,322 L737,321 L737,320 L732,315 L731,315 L730,314 L729,314 L728,313"
        fill="black" />
    <path
        d="M285,313 L284,314 L282,314 L277,319 L277,320 L276,321 L276,323 L275,324 L275,329 L276,330 L276,332 L277,333 L277,334 L278,335 L278,336 L279,337 L280,337 L282,339 L283,339 L284,340 L293,340 L294,339 L296,339 L297,338 L298,338 L301,335 L301,334 L302,333 L302,332 L303,331 L303,322 L302,321 L302,320 L300,318 L300,317 L299,316 L298,316 L296,314 L294,314 L293,313"
        fill="black" />
    <path
        d="M363,305 L362,306 L361,306 L357,310 L357,312 L356,313 L356,318 L357,319 L357,321 L362,326 L364,326 L365,327 L366,327 L367,326 L368,326 L369,327 L370,326 L371,326 L372,325 L373,325 L377,321 L377,320 L378,319 L378,313 L377,312 L377,310 L373,306 L372,306 L371,305"
        fill="black" />
    <path
        d="M644,304 L643,305 L641,305 L640,306 L639,306 L636,309 L636,310 L635,311 L635,313 L634,314 L634,319 L635,320 L635,321 L640,326 L642,326 L643,327 L647,327 L648,326 L651,326 L656,321 L656,319 L657,318 L657,314 L656,313 L656,311 L651,306 L650,306 L649,305 L645,305"
        fill="black" />
    <path
        d="M487,298 L486,299 L480,299 L479,300 L475,300 L474,301 L470,301 L469,302 L466,302 L465,303 L462,303 L461,304 L459,304 L458,305 L455,305 L454,306 L452,306 L451,307 L449,307 L448,308 L447,308 L446,309 L444,309 L443,310 L442,310 L441,311 L439,311 L438,312 L437,312 L436,313 L435,313 L434,314 L432,314 L431,315 L430,315 L429,316 L428,316 L427,317 L426,317 L424,319 L423,319 L422,320 L421,320 L420,321 L419,321 L417,323 L416,323 L415,324 L414,324 L413,325 L412,325 L410,327 L409,327 L406,330 L405,330 L402,333 L401,333 L396,338 L395,338 L376,357 L376,358 L372,362 L372,363 L368,367 L368,368 L367,369 L367,370 L365,372 L365,373 L362,376 L362,377 L361,378 L361,379 L359,381 L359,382 L358,383 L358,384 L357,385 L357,386 L356,387 L356,388 L355,389 L355,390 L354,391 L354,392 L353,393 L353,394 L352,395 L352,396 L351,397 L351,398 L350,399 L350,400 L349,401 L349,402 L348,403 L348,405 L347,406 L347,408 L346,409 L346,410 L345,411 L345,414 L344,415 L344,417 L343,418 L343,421 L342,422 L342,425 L341,426 L341,429 L340,430 L340,434 L339,435 L339,440 L338,441 L338,455 L337,456 L337,477 L338,478 L338,481 L339,481 L340,480 L341,480 L342,479 L344,479 L345,478 L346,478 L347,477 L349,477 L350,476 L352,476 L353,475 L355,475 L356,474 L359,474 L360,473 L362,473 L362,466 L361,465 L361,445 L362,444 L362,439 L363,438 L363,435 L364,434 L364,430 L365,429 L365,426 L366,425 L366,423 L367,422 L367,419 L368,418 L368,416 L369,415 L369,414 L370,413 L370,412 L371,411 L371,410 L372,409 L372,408 L373,407 L373,405 L374,404 L374,403 L375,402 L375,401 L376,400 L376,399 L378,397 L378,396 L379,395 L379,394 L381,392 L381,391 L382,390 L382,389 L384,387 L384,386 L386,384 L386,383 L390,379 L390,378 L394,374 L394,373 L399,368 L399,367 L401,365 L402,365 L403,364 L403,363 L406,360 L407,360 L414,353 L415,353 L419,349 L420,349 L422,347 L423,347 L425,345 L426,345 L428,343 L429,343 L430,342 L431,342 L433,340 L434,340 L435,339 L436,339 L437,338 L438,338 L439,337 L440,337 L441,336 L442,336 L443,335 L444,335 L445,334 L447,334 L448,333 L449,333 L450,332 L451,332 L452,331 L454,331 L455,330 L456,330 L457,329 L459,329 L460,328 L462,328 L463,327 L465,327 L466,326 L468,326 L469,325 L473,325 L474,324 L478,324 L479,323 L482,323 L483,322 L493,322 L494,321 L518,321 L519,322 L527,322 L528,323 L533,323 L534,324 L537,324 L538,325 L541,325 L542,326 L544,326 L545,327 L547,327 L548,328 L550,328 L551,329 L553,329 L554,330 L556,330 L557,331 L558,331 L559,332 L561,332 L562,333 L563,333 L564,334 L565,334 L566,335 L567,335 L568,336 L569,336 L570,337 L571,337 L572,338 L573,338 L574,339 L575,339 L576,340 L577,340 L578,341 L579,341 L581,343 L582,343 L584,345 L585,345 L587,347 L588,347 L590,349 L591,349 L593,351 L594,351 L598,355 L599,355 L616,372 L616,373 L620,377 L620,378 L623,381 L623,382 L626,385 L626,386 L628,388 L628,389 L630,391 L630,392 L631,393 L631,394 L633,396 L633,397 L634,398 L634,399 L635,400 L635,401 L636,402 L636,403 L638,405 L638,406 L639,407 L639,408 L640,409 L640,410 L641,411 L641,413 L642,414 L642,415 L643,416 L643,418 L644,419 L644,421 L645,422 L645,424 L646,425 L646,428 L647,429 L647,432 L648,433 L648,436 L649,437 L649,442 L650,443 L650,450 L651,451 L651,473 L652,474 L656,474 L657,475 L659,475 L660,476 L662,476 L663,477 L665,477 L666,478 L668,478 L669,479 L670,479 L671,480 L674,480 L674,463 L675,462 L675,458 L674,457 L674,441 L673,440 L673,435 L672,434 L672,430 L671,429 L671,426 L670,425 L670,422 L669,421 L669,418 L668,417 L668,415 L667,414 L667,412 L666,411 L666,409 L665,408 L665,406 L664,405 L664,404 L663,403 L663,401 L662,400 L662,399 L661,398 L661,397 L660,396 L660,394 L658,392 L658,390 L656,388 L656,386 L654,384 L654,383 L653,382 L653,381 L652,380 L652,379 L650,377 L650,376 L648,374 L648,373 L646,371 L646,370 L644,368 L644,367 L641,364 L641,363 L638,360 L638,359 L632,353 L632,352 L631,352 L629,350 L629,349 L623,343 L622,343 L617,338 L616,338 L612,334 L611,334 L609,332 L608,332 L604,328 L603,328 L602,327 L601,327 L599,325 L598,325 L596,323 L595,323 L594,322 L593,322 L592,321 L591,321 L589,319 L588,319 L587,318 L585,318 L583,316 L582,316 L581,315 L580,315 L579,314 L577,314 L576,313 L575,313 L574,312 L573,312 L572,311 L570,311 L569,310 L568,310 L567,309 L565,309 L564,308 L563,308 L562,307 L560,307 L559,306 L557,306 L556,305 L554,305 L553,304 L550,304 L549,303 L546,303 L545,302 L542,302 L541,301 L537,301 L536,300 L532,300 L531,299 L524,299 L523,298"
        fill="black" />
    <path
        d="M599,276 L598,277 L597,277 L593,281 L593,283 L592,284 L592,288 L593,289 L593,290 L594,291 L594,292 L596,294 L598,294 L599,295 L605,295 L606,294 L607,294 L611,290 L611,282 L610,281 L610,280 L607,277 L606,277 L605,276"
        fill="black" />
    <path
        d="M410,276 L409,277 L407,277 L406,278 L405,278 L404,279 L404,280 L403,281 L403,282 L402,283 L402,289 L403,290 L403,291 L406,294 L407,294 L408,295 L413,295 L414,294 L415,294 L416,293 L417,293 L418,292 L418,291 L419,290 L419,288 L420,287 L420,282 L419,281 L419,280 L418,279 L417,279 L415,277 L413,277 L412,276"
        fill="black" />
    <path
        d="M673,272 L672,273 L671,273 L669,275 L668,275 L667,276 L667,277 L666,278 L666,279 L665,280 L665,284 L664,285 L665,286 L665,289 L666,290 L666,291 L668,293 L668,294 L669,295 L670,295 L671,296 L672,296 L673,297 L678,297 L679,296 L681,296 L682,295 L683,295 L685,293 L686,293 L686,292 L688,290 L688,289 L689,288 L689,281 L688,280 L688,279 L687,278 L687,277 L684,274 L683,274 L682,273 L681,273 L680,272"
        fill="black" />
    <path
        d="M331,272 L330,273 L329,273 L327,275 L326,275 L326,276 L324,278 L324,280 L323,281 L323,288 L324,289 L324,290 L325,291 L325,292 L327,294 L328,294 L330,296 L333,296 L334,297 L337,297 L338,296 L341,296 L343,294 L344,294 L347,291 L347,290 L348,289 L348,286 L349,285 L349,284 L348,283 L348,280 L347,279 L347,278 L342,273 L341,273 L340,272"
        fill="black" />
    <path
        d="M553,260 L551,262 L550,262 L549,263 L549,264 L548,265 L548,266 L547,267 L547,271 L548,272 L548,274 L552,278 L555,278 L556,279 L557,278 L559,278 L560,277 L561,277 L563,275 L563,274 L564,273 L564,272 L565,271 L565,267 L564,266 L564,265 L563,264 L563,263 L562,262 L561,262 L560,261 L558,261 L557,260"
        fill="black" />
    <path
        d="M453,260 L452,261 L451,261 L448,264 L448,266 L447,267 L447,272 L448,273 L448,274 L449,275 L449,276 L450,277 L451,277 L452,278 L453,278 L454,279 L457,279 L458,278 L459,278 L460,277 L461,277 L463,275 L463,274 L464,273 L464,271 L465,270 L465,267 L464,266 L464,265 L463,264 L463,263 L461,261 L459,261 L458,260"
        fill="black" />
    <path
        d="M706,234 L705,235 L704,235 L703,236 L702,236 L702,237 L699,240 L699,242 L698,243 L698,248 L699,249 L699,251 L701,253 L701,254 L702,255 L703,255 L704,256 L706,256 L707,257 L711,257 L712,256 L714,256 L716,254 L717,254 L719,252 L719,251 L720,250 L720,248 L721,247 L720,246 L721,245 L721,243 L720,242 L720,241 L719,240 L719,239 L716,236 L715,236 L714,235 L713,235 L712,234"
        fill="black" />
    <path
        d="M299,234 L298,235 L297,235 L296,236 L295,236 L294,237 L294,238 L292,240 L292,241 L291,242 L291,248 L292,249 L292,251 L294,253 L294,254 L295,255 L296,255 L297,256 L298,256 L299,257 L305,257 L306,256 L307,256 L309,254 L310,254 L311,253 L311,252 L313,250 L313,248 L314,247 L314,242 L312,240 L312,239 L309,236 L308,236 L307,235 L306,235 L305,234"
        fill="black" />
    <path
        d="M503,233 L502,234 L501,234 L500,235 L499,235 L496,238 L496,239 L495,240 L495,268 L496,269 L496,270 L499,273 L500,273 L501,274 L502,274 L503,275 L509,275 L510,274 L511,274 L513,272 L514,272 L515,271 L515,270 L516,269 L516,267 L517,266 L517,242 L516,241 L516,239 L512,235 L511,235 L510,234 L509,234 L508,233"
        fill="black" />
    <path
        d="M635,208 L634,209 L633,209 L631,211 L630,211 L629,212 L629,213 L627,215 L627,216 L626,217 L626,218 L625,219 L625,220 L624,221 L624,222 L623,223 L623,224 L621,226 L621,227 L620,228 L620,229 L619,230 L619,231 L618,232 L618,233 L617,234 L617,235 L615,237 L615,238 L614,239 L614,240 L613,241 L613,242 L612,243 L612,244 L611,245 L611,248 L610,249 L610,250 L611,251 L611,253 L612,254 L612,255 L613,256 L613,257 L614,258 L615,258 L616,259 L617,259 L618,260 L620,260 L621,261 L622,260 L626,260 L627,259 L628,259 L631,256 L631,255 L633,253 L633,252 L634,251 L634,250 L635,249 L635,248 L637,246 L637,245 L638,244 L638,243 L639,242 L639,241 L641,239 L641,238 L642,237 L642,236 L643,235 L643,234 L644,233 L644,232 L645,231 L645,230 L647,228 L647,227 L648,226 L648,225 L649,224 L649,222 L650,221 L650,217 L649,216 L649,215 L647,213 L647,212 L645,210 L644,210 L643,209 L640,209 L639,208"
        fill="black" />
    <path
        d="M372,208 L371,209 L369,209 L364,214 L364,216 L363,217 L363,223 L364,224 L364,225 L365,226 L365,227 L366,228 L366,229 L367,230 L367,231 L368,232 L368,233 L370,235 L370,236 L371,237 L371,238 L372,239 L372,240 L373,241 L373,242 L375,244 L375,245 L376,246 L376,247 L377,248 L377,249 L378,250 L378,251 L380,253 L380,254 L381,255 L381,256 L383,258 L384,258 L385,259 L386,259 L387,260 L394,260 L395,259 L396,259 L397,258 L398,258 L400,256 L400,255 L401,254 L401,253 L402,252 L402,246 L401,245 L401,243 L400,242 L400,241 L399,240 L399,239 L397,237 L397,236 L396,235 L396,234 L395,233 L395,232 L394,231 L394,230 L393,229 L393,228 L392,227 L392,226 L390,224 L390,223 L389,222 L389,221 L388,220 L388,219 L387,218 L387,217 L385,215 L385,214 L384,213 L384,212 L382,210 L381,210 L380,209 L379,209 L378,208"
        fill="black" />
    <path
        d="M565,207 L564,208 L562,208 L561,209 L560,209 L556,213 L556,214 L555,215 L555,216 L554,217 L554,226 L555,227 L555,228 L556,229 L556,230 L559,233 L560,233 L561,234 L562,234 L563,235 L572,235 L573,234 L574,234 L575,233 L576,233 L579,230 L579,229 L581,227 L581,226 L582,225 L582,218 L581,217 L581,216 L580,215 L580,214 L579,213 L579,212 L577,210 L576,210 L575,209 L574,209 L573,208 L571,208 L570,207 L567,207 L566,208"
        fill="black" />
    <path
        d="M442,207 L441,208 L439,208 L438,209 L437,209 L433,213 L433,214 L432,215 L432,216 L431,217 L431,226 L432,227 L432,228 L433,229 L433,230 L436,233 L437,233 L438,234 L440,234 L441,235 L448,235 L449,234 L451,234 L453,232 L454,232 L457,229 L457,228 L458,227 L458,226 L459,225 L459,218 L458,217 L458,215 L456,213 L456,212 L454,210 L453,210 L452,209 L451,209 L450,208 L448,208 L447,207 L446,208 L445,207"
        fill="black" />
    <path
        d="M505,147 L504,148 L501,148 L500,149 L499,149 L496,152 L496,154 L495,155 L495,182 L494,183 L494,203 L495,204 L495,209 L496,210 L496,211 L499,214 L500,214 L501,215 L504,215 L505,216 L506,216 L507,215 L510,215 L511,214 L512,214 L513,213 L514,213 L514,212 L516,210 L516,209 L517,208 L517,156 L516,155 L516,153 L511,148 L508,148 L507,147"
        fill="black" />
</svg>